<svg xmlns="http://www.w3.org/2000/svg"  viewBox="0 0 100 100" width="50px" height="50px"><path d="M80.925,43c0-25.617-22.681-27.975-23-28h-34c-0.553,0-1,0.448-1,1v68c0,0.553,0.447,1,1,1h16c3.309,0,6-2.691,6-6v-9.88	c4.1,0.391,18.109,1.059,27.188-6.815c3.159-2.739,5.363-6.225,6.607-10.408c0.005-0.004,0.011-0.002,0.016-0.006	c0.175-0.139,0.225-0.37,0.148-0.568C80.574,48.793,80.925,46.018,80.925,43z M75.584,56.281c-0.557-0.828-1.241-1.759-1.898-2.432	c-1.16-1.229-2.32-2.163-3.41-2.995c-1.251-0.916-2.692-1.707-4.053-2.225c-0.314-0.124-0.615-0.237-0.903-0.346	c-0.804-0.304-1.497-0.566-2.226-0.948c-0.078-0.026-0.159-0.075-0.25-0.129c-2.213-1.291-4.128-2.982-5.392-4.762	c-0.068-0.097-0.128-0.195-0.192-0.299l-0.48-0.777c-0.471-0.769-0.959-1.563-1.524-2.282c-0.735-0.943-1.704-2.156-2.571-3.072	c-3.628-4.939-9.263-8.302-9.496-8.439c-7.522-4.656-9.256-8.778-9.651-10.576l12.783-0.002c0.733,0.303,8.458,3.591,11.858,8.421	c0.563,0.863,1.003,1.775,1.462,2.727l0.082,0.17c0.197,0.416,0.385,0.878,0.563,1.387c0.116,0.303,0.229,0.611,0.341,0.924	c0.239,0.66,0.486,1.342,0.804,2.045c0.645,1.399,1.531,2.803,2.716,4.298c0.876,1.079,2.079,2.474,3.616,3.688	c0.793,0.643,1.631,1.176,2.369,1.647c0.588,0.375,1.143,0.728,1.606,1.095c0.939,0.667,1.753,1.467,2.719,2.675l3.554,4.453	C77.457,52.641,76.64,54.554,75.584,56.281z M75.237,45.45c-1.014-1.267-1.914-2.151-2.899-2.85c-0.484-0.383-1.061-0.75-1.67-1.138	c-0.751-0.479-1.527-0.974-2.282-1.585c-1.465-1.157-2.62-2.498-3.46-3.532c-1.131-1.428-1.978-2.766-2.586-4.088	c-0.301-0.665-0.541-1.329-0.773-1.971c-0.115-0.318-0.229-0.633-0.343-0.928c-0.185-0.528-0.386-1.022-0.6-1.473l-0.044-0.092	c0.021,0.027,0.043,0.055,0.064,0.083c0.52,0.678,0.983,1.409,1.431,2.115c0.225,0.354,0.446,0.703,0.677,1.048l0.123,0.176	c0.124,0.179,0.241,0.348,0.375,0.521c1.602,2.031,3.86,3.939,6.198,5.236c0.224,0.124,0.422,0.224,0.621,0.323	c0.667,0.333,1.386,0.594,2.146,0.871c0.671,0.243,1.364,0.495,2.115,0.826c1.425,0.628,2.921,1.555,4.447,2.754	c0.035,0.028,0.075,0.041,0.115,0.058c0.012,0.397,0.032,0.786,0.032,1.196c0,2.246-0.228,4.328-0.634,6.278L75.237,45.45z M78.843,40.549c-1.402-1.048-2.782-1.887-4.108-2.472c-0.782-0.345-1.492-0.603-2.179-0.852c-0.732-0.266-1.425-0.517-2.041-0.825	c-0.187-0.093-0.373-0.187-0.583-0.303c-2.226-1.234-4.375-3.049-5.895-4.976c-0.12-0.156-0.228-0.311-0.342-0.476l-0.119-0.171	c-0.22-0.33-0.437-0.672-0.657-1.02c-0.46-0.725-0.935-1.475-1.483-2.19c-0.931-1.202-1.874-2.367-3.176-3.409	c-0.014-0.012-0.032-0.015-0.047-0.025c-2.715-3.204-6.942-5.592-9.482-6.834l9.103-0.001	C58.664,17.071,77.504,19.047,78.843,40.549z M32.507,16.999c0.349,1.957,2.067,6.42,10.164,11.432	c0.052,0.031,4.775,2.851,8.267,6.988c-0.023,0.137,0.005,0.281,0.099,0.397c0.815,1.004,1.933,3.068,2.468,4.136	c0.106,0.205,0.246,0.426,0.39,0.652c0.196,0.309,0.398,0.628,0.498,0.892l0.231,0.627c0.185,0.5,0.375,1.018,0.591,1.557	c0.511,1.199,1.254,2.413,2.271,3.711c1.041,1.326,1.953,2.305,2.954,3.171c0.894,0.79,1.919,1.417,2.824,1.972	c0.257,0.157,0.502,0.307,0.727,0.45c0.923,0.596,1.682,1.244,2.534,2.164c0.882,0.979,1.594,1.913,2.071,2.72	c0.563,0.875,0.864,1.646,1.319,2.813l0.524,1.185c-1.255,0.915-2.594,1.682-3.981,2.322c-0.612-0.858-1.259-1.642-1.814-2.291	c-1.161-1.445-2.587-2.815-3.805-3.656c-1.073-0.785-2.746-1.872-4.621-2.593c-0.402-0.154-0.778-0.293-1.136-0.425	c-1.011-0.373-1.884-0.694-2.729-1.16c-0.011-0.007-0.022-0.012-0.033-0.018c-0.008-0.004-0.015-0.007-0.021-0.011	c-2.443-1.376-4.626-3.25-6.132-5.258l-0.29-0.435c-0.226-0.334-0.447-0.688-0.675-1.049c-0.486-0.774-0.989-1.574-1.59-2.309	c-0.923-1.154-2.044-2.258-3.332-3.283c-0.08-0.064-0.174-0.092-0.269-0.1c-2.9-2.389-5.697-3.957-5.844-4.039	c-3.505-1.947-7.695-6.446-9.243-8.181V17L32.507,16.999z M59.742,66.367c-0.113-0.191-0.226-0.388-0.336-0.56	c-0.768-1.263-1.381-2.095-2.336-3.174c-0.925-1.079-1.868-1.927-2.974-2.671c-0.252-0.164-0.526-0.337-0.816-0.519	c-0.99-0.622-2.112-1.328-3.056-2.163c-1.095-0.949-2.122-2.053-3.236-3.474c-1.056-1.339-1.876-2.687-2.439-4.009	c-0.229-0.53-0.424-1.051-0.615-1.563c-0.129-0.346-0.257-0.688-0.387-1.011c-0.216-0.596-0.424-1.085-0.656-1.541	c0.541,0.673,1.011,1.42,1.466,2.145c0.233,0.371,0.461,0.733,0.69,1.074l0.305,0.456c1.605,2.141,3.902,4.115,6.468,5.557	c0.013,0.007,0.024,0.014,0.037,0.02c0.008,0.004,0.016,0.008,0.023,0.012c0.909,0.5,1.813,0.833,2.858,1.219	c0.354,0.13,0.726,0.267,1.122,0.42c1.384,0.531,2.942,1.407,4.401,2.474c1.153,0.797,2.501,2.094,3.614,3.48	c0.51,0.596,1.088,1.308,1.642,2.067C63.622,65.393,61.664,65.961,59.742,66.367z M53.812,67.181	c-1.458-1.39-3.858-3.129-3.894-3.152c-1.245-0.786-2.892-1.545-4.39-2.024c-0.942-0.331-1.719-0.659-2.436-1.029	c-0.306-0.164-0.634-0.353-0.927-0.532c-2.063-1.348-3.649-2.718-4.856-4.195c-0.233-0.272-0.533-0.635-0.782-1.034	c-0.211-0.32-0.423-0.656-0.638-0.998c-0.555-0.882-1.129-1.794-1.804-2.611c-1.197-1.441-2.185-2.484-3.027-3.214	c-0.943-1.077-4.047-4.44-6.134-4.451V30.876c1.931,2.101,5.554,5.782,8.757,7.561c0.038,0.021,3.195,1.791,6.229,4.389	c0.63,0.816,1.038,1.471,2.05,3.234c0.225,0.428,0.43,0.906,0.653,1.52c0.132,0.331,0.257,0.666,0.384,1.004	c0.197,0.528,0.397,1.065,0.633,1.608c0.597,1.401,1.463,2.826,2.572,4.233c1.153,1.471,2.223,2.619,3.363,3.607	c1.001,0.887,2.16,1.615,3.183,2.258c0.285,0.179,0.555,0.349,0.796,0.506c1.037,0.698,1.891,1.465,2.772,2.493	c0.917,1.036,1.502,1.831,2.241,3.046c0.047,0.075,0.095,0.159,0.142,0.237C57.002,66.882,55.347,67.074,53.812,67.181z M43.925,73.666c-0.383-0.269-0.783-0.539-1.213-0.802c-1.24-0.783-2.886-1.542-4.393-2.026c-1.287-0.446-2.216-0.871-3.104-1.422	c-0.045-0.028-0.101-0.063-0.152-0.075c-0.048-0.032-0.098-0.063-0.105-0.064c-2.363-1.529-4.115-3.118-5.411-4.921	c-0.066-0.066-0.116-0.142-0.226-0.307c-0.21-0.319-0.421-0.654-0.636-0.995c-0.555-0.883-1.13-1.796-1.806-2.615	c-0.576-0.695-0.91-0.813-1.318-0.904c-0.174-0.039-0.348-0.086-0.636-0.287V44.933c1.217-0.031,3.5,2.044,5.029,3.721	c0.016,0.049,0.036,0.097,0.067,0.14c0.133,0.184,0.373,0.572,0.559,0.872l0.194,0.311c0.02,0.031,0.043,0.059,0.068,0.085	l0.024,0.017c0.648,0.874,1.202,1.744,1.641,2.576c0.398,0.796,0.711,1.602,1.088,2.65l0.117,0.317	c0.108,0.294,0.221,0.598,0.344,0.898c1.022,2.544,2.688,4.932,5.243,7.516c0.818,0.818,3.031,2.761,4.626,3.999V73.666z M24.925,60.916c0.147,0.196,0.28,0.39,0.378,0.578c0.326,0.632,0.576,1.274,0.84,1.955l0.046,0.118	c0.195,0.587,0.416,1.174,0.661,1.787c1.021,2.545,2.687,4.933,5.242,7.516c1.239,1.239,2.751,2.27,3.805,2.917	c1.309,0.791,2.128,1.399,2.917,2.167c1.698,1.697,1.507,3.858,1.226,5.035C40,82.99,39.964,83,39.925,83h-15V60.916z M41.097,82.804c0.263-1.446,0.267-3.715-1.582-5.563c-0.853-0.83-1.723-1.478-3.099-2.309c-1.005-0.618-2.447-1.6-3.616-2.769	c-2.457-2.483-4.053-4.767-5.023-7.183c-0.237-0.593-0.45-1.162-0.648-1.754l-0.054-0.141c-0.222-0.572-0.434-1.118-0.693-1.667	c0.523,0.683,0.997,1.436,1.457,2.166c0.218,0.348,0.433,0.688,0.688,1.076c0.085,0.129,0.173,0.263,0.258,0.338	c1.316,1.844,3.158,3.518,5.629,5.116c0.015,0.01,0.082,0.051,0.098,0.059c0.055,0.036,0.13,0.086,0.228,0.123	c0.939,0.576,1.916,1.022,3.263,1.488c1.442,0.464,3.003,1.183,4.182,1.928c0.634,0.387,1.204,0.792,1.741,1.184V79	C43.925,80.795,42.729,82.3,41.097,82.804z M45.065,67.01c-0.226-0.034-0.445,0.034-0.638,0.149	c-1.495-1.172-3.575-2.984-4.419-3.828c-2.457-2.484-4.053-4.768-5.025-7.187c-0.12-0.293-0.228-0.585-0.332-0.868l-0.117-0.316	c-0.264-0.732-0.571-1.565-0.956-2.388c0.527,0.686,1.004,1.441,1.466,2.177c0.22,0.349,0.435,0.69,0.643,1.006	c0.278,0.445,0.608,0.846,0.856,1.136c1.267,1.55,2.927,2.986,5.089,4.398c0.322,0.198,0.668,0.396,0.996,0.572	c0.767,0.396,1.583,0.741,2.583,1.093c1.436,0.46,2.996,1.178,4.178,1.924c0.596,0.37,1.895,1.447,2.972,2.381	C48.158,67.426,45.137,67.02,45.065,67.01z M71.809,60.789c-0.182,0.158-0.371,0.304-0.557,0.455L70.918,60.5l-0.07-0.181	c-0.46-1.181-0.793-2.033-1.4-2.976c-0.507-0.859-1.24-1.822-2.184-2.87c-0.917-0.989-1.733-1.686-2.732-2.331	c-0.231-0.147-0.482-0.301-0.745-0.462c-0.87-0.532-1.855-1.136-2.688-1.871c-0.954-0.827-1.826-1.763-2.825-3.036	c-0.963-1.228-1.663-2.369-2.135-3.475c-0.207-0.52-0.395-1.029-0.576-1.521l-0.233-0.632c-0.136-0.361-0.366-0.725-0.59-1.077	c-0.01-0.015-0.019-0.029-0.027-0.043c0.434,0.592,0.83,1.238,1.216,1.866l0.479,0.776c0.076,0.125,0.147,0.24,0.23,0.356	c1.344,1.893,3.369,3.686,5.697,5.043c0.115,0.069,0.259,0.156,0.363,0.184c0.71,0.379,1.432,0.652,2.268,0.968	c0.284,0.107,0.581,0.219,0.896,0.343c1.284,0.489,2.642,1.235,3.814,2.093c1.048,0.8,2.17,1.703,3.288,2.887	c0.714,0.73,1.47,1.802,2.039,2.675C74.094,58.531,73.033,59.726,71.809,60.789z"/></svg>