<svg xmlns="http://www.w3.org/2000/svg"  viewBox="0 0 50 50" width="50px" height="50px"><path d="M 25 3 C 12.861562 3 3 12.861562 3 25 C 3 37.138438 12.861562 47 25 47 C 29.986012 47 34.55729 45.290409 38.248047 42.490234 L 43.242188 47.484375 L 47.484375 43.242188 L 46.777344 42.535156 L 42.492188 38.25 C 45.292017 34.558581 47 29.985756 47 25 C 47 12.861562 37.138438 3 25 3 z M 25 5 C 36.057562 5 45 13.942438 45 25 C 45 29.842339 43.284698 34.270427 40.425781 37.730469 L 39.845703 38.431641 L 44.65625 43.242188 L 43.242188 44.65625 L 39.074219 40.488281 L 38.431641 39.845703 L 37.015625 38.429688 L 36.220703 37.634766 L 34.050781 35.464844 C 33.651854 35.065917 33.651854 34.449708 34.050781 34.050781 C 34.449708 33.651854 35.065917 33.651854 35.464844 34.050781 L 38.429688 37.015625 L 39.126953 36.132812 C 41.543043 33.070387 43 29.203556 43 25 C 43 15.07058 34.92942 7 25 7 C 15.07058 7 7 15.07058 7 25 C 7 34.92942 15.07058 43 25 43 C 28.874989 43 32.39366 41.658463 35.330078 39.572266 L 36.816406 41.058594 C 33.499512 43.504897 29.442777 45 25 45 C 13.942438 45 5 36.057562 5 25 C 5 13.942438 13.942438 5 25 5 z M 25 9 C 33.84858 9 41 16.15142 41 25 C 41 28.325657 39.856288 31.319361 38.119141 33.876953 L 36.878906 32.636719 C 35.715833 31.473646 33.799792 31.473646 32.636719 32.636719 C 31.473646 33.799792 31.473646 35.715833 32.636719 36.878906 L 33.876953 38.119141 C 31.319361 39.856288 28.325657 41 25 41 C 16.15142 41 9 33.84858 9 25 C 9 16.15142 16.15142 9 25 9 z M 25 16 C 20.041279 16 16 20.041283 16 25 C 16 29.958717 20.041279 34 25 34 C 29.958721 34 34 29.958717 34 25 C 34 20.041283 29.958721 16 25 16 z M 25 18 C 28.877841 18 32 21.122161 32 25 C 32 28.877839 28.877841 32 25 32 C 21.122159 32 18 28.877839 18 25 C 18 21.122161 21.122159 18 25 18 z M 25 23 A 2 2 0 0 0 25 27 A 2 2 0 0 0 25 23 z"/></svg>