<svg xmlns="http://www.w3.org/2000/svg"  viewBox="0 0 50 50" width="50px" height="50px"><path d="M 8.9882812 11.25 A 0.750075 0.750075 0 0 0 8.46875 11.470703 L 0.47070312 19.470703 A 0.750075 0.750075 0 0 0 0.47070312 20.53125 L 8.4707031 28.529297 A 0.750075 0.750075 0 0 0 9.53125 28.529297 L 17 21.060547 L 23.939453 28 L 16.470703 35.470703 A 0.750075 0.750075 0 0 0 16.470703 36.53125 L 24.470703 44.529297 A 0.750075 0.750075 0 0 0 25.53125 44.529297 L 33.529297 36.529297 A 0.750075 0.750075 0 0 0 33.529297 35.46875 L 26.060547 28 L 33 21.060547 L 40.470703 28.529297 A 0.750075 0.750075 0 0 0 41.53125 28.529297 L 49.529297 20.529297 A 0.750075 0.750075 0 0 0 49.529297 19.46875 L 41.529297 11.470703 A 0.750075 0.750075 0 0 0 40.46875 11.470703 L 33 18.939453 L 25.529297 11.470703 A 0.750075 0.750075 0 0 0 24.46875 11.470703 L 17 18.939453 L 9.5292969 11.470703 A 0.750075 0.750075 0 0 0 8.9882812 11.25 z M 9 13.060547 L 15.939453 20 L 9 26.939453 L 2.0605469 20 L 9 13.060547 z M 25 13.060547 L 31.939453 20 L 25 26.939453 L 18.060547 20 L 25 13.060547 z M 41 13.060547 L 47.939453 20 L 41 26.939453 L 34.060547 20 L 41 13.060547 z M 25 29.060547 L 31.939453 36 L 25 42.939453 L 18.060547 36 L 25 29.060547 z"/></svg>